<svg width="129" height="377" viewBox="0 0 129 377" fill="none" xmlns="http://www.w3.org/2000/svg">
<path d="M54.1426 249.503C83.1386 249.503 106.645 225.997 106.645 197.001C106.645 168.005 83.1386 144.499 54.1426 144.499C25.1466 144.499 1.64062 168.005 1.64062 197.001C1.64062 225.997 25.1466 249.503 54.1426 249.503Z" fill="white"/>
<path d="M104.989 197.001C104.854 212.528 97.8999 226.885 85.9058 236.72C73.7442 246.694 57.0941 249.988 41.9226 246.37C27.131 242.842 14.8171 232.36 8.1881 218.804C1.26906 204.654 1.86959 187.558 8.97071 173.631C19.5909 152.803 43.8208 142.256 66.363 147.632C88.9681 153.023 104.788 174.019 104.989 197.001C105.008 199.135 108.318 199.136 108.3 197.001C108.038 166.953 83.262 142.59 53.2095 142.852C23.161 143.114 -0.756999 169.211 0.0183305 198.864C0.785053 228.192 26.1068 251.402 55.076 251.15C84.4154 250.895 108.047 225.963 108.3 197.002C108.318 194.866 105.008 194.867 104.989 197.001Z" fill="#041D44"/>
<path d="M88.656 78.5822C109.912 78.5822 127.143 61.3509 127.143 40.0951C127.143 18.8393 109.912 1.60803 88.656 1.60803C67.4002 1.60803 50.1689 18.8393 50.1689 40.0951C50.1689 61.3509 67.4002 78.5822 88.656 78.5822Z" fill="white"/>
<path d="M125.487 40.0951C125.302 55.8188 115.416 69.7523 100.546 74.9684C85.6368 80.1984 68.7318 74.7029 59.2272 62.2658C49.6591 49.746 49.6214 32.2987 58.2308 19.3227C66.9878 6.12423 83.8219 0.558542 98.871 4.69739C114.628 9.03222 125.298 23.9972 125.487 40.0951C125.512 42.2284 128.823 42.231 128.798 40.0951C128.63 25.7942 121.175 12.7996 108.916 5.43299C96.5675 -1.98727 80.7723 -1.63238 68.3941 5.43299C56.0518 12.4785 48.6772 26.0365 48.5123 40.0951C48.3455 54.3019 56.3491 67.519 68.3941 74.7571C80.7425 82.1774 96.5378 81.8225 108.916 74.7571C121.258 67.7116 128.633 54.1536 128.798 40.0951C128.823 37.9591 125.512 37.9617 125.487 40.0951Z" fill="#041D44"/>
<path d="M78.5709 375.115C98.708 375.115 115.032 358.79 115.032 338.653C115.032 318.516 98.708 302.192 78.5709 302.192C58.4338 302.192 42.1094 318.516 42.1094 338.653C42.1094 358.79 58.4338 375.115 78.5709 375.115Z" fill="white"/>
<path d="M113.376 338.653C113.177 354.582 102.505 368.303 87.1077 372.404C71.6362 376.523 55.3834 368.751 47.8108 354.958C40.084 340.885 43.8752 323.169 55.5257 312.564C67.3947 301.761 85.5318 301.292 98.5655 310.154C107.92 316.514 113.236 327.48 113.376 338.653C113.402 340.786 116.713 340.789 116.686 338.653C116.507 324.274 108.557 311.261 95.774 304.635C82.9218 297.973 66.9828 299.698 55.5111 308.316C44.0209 316.949 38.7763 331.418 41.0653 345.451C43.3502 359.461 54.122 370.864 67.4457 375.12C91.7378 382.879 116.376 363.524 116.686 338.653C116.713 336.517 113.402 336.519 113.376 338.653Z" fill="#041D44"/>
<path d="M103.222 46.6821C103.212 50.3032 103.202 53.9244 103.191 57.5455C103.171 64.5461 94.6949 66.4901 88.9954 66.6264C83.3939 66.7602 74.0368 64.7387 74.0567 57.7117C74.0673 54.0071 74.0779 50.3019 74.0885 46.5974C73.3688 46.5974 72.649 46.5974 71.9293 46.5974C72.271 54.272 82.2266 56.6351 88.3803 56.7821C94.6294 56.9317 104.997 54.4289 105.381 46.6828C105.45 45.2903 103.291 45.297 103.222 46.6821C102.914 52.8829 93.8097 54.5077 89.0298 54.6222C84.1037 54.7401 74.3732 52.9921 74.0885 46.5967C74.0269 45.2122 71.9333 45.1983 71.9293 46.5967C71.9181 50.5714 71.9068 54.5461 71.8955 58.5215C71.8737 66.2371 82.3895 68.6426 88.3465 68.7849C94.34 68.928 105.325 66.4212 105.347 58.6658C105.358 54.6712 105.37 50.6767 105.381 46.6821C105.385 45.2897 103.226 45.2903 103.222 46.6821Z" fill="#2E3192"/>
<path d="M103.222 34.6487C103.212 38.2698 103.202 41.891 103.191 45.5121C103.171 52.5127 94.6949 54.4566 88.9954 54.593C83.3939 54.7268 74.0368 52.7053 74.0567 45.6783C74.0673 41.9737 74.0779 38.2685 74.0885 34.564C73.3688 34.564 72.649 34.564 71.9293 34.564C72.271 42.2386 82.2266 44.6017 88.3803 44.7487C94.6294 44.8983 104.997 42.3955 105.381 34.6494C105.45 33.2569 103.291 33.2636 103.222 34.6487C102.914 40.8495 93.8097 42.4743 89.0298 42.5888C84.1037 42.7067 74.3732 40.9587 74.0885 34.5633C74.0269 33.1788 71.9333 33.1649 71.9293 34.5633C71.9181 38.538 71.9068 42.5127 71.8955 46.488C71.8737 54.2037 82.3895 56.6092 88.3465 56.7515C94.34 56.8946 105.325 54.3878 105.347 46.6324C105.358 42.6378 105.37 38.6433 105.381 34.6487C105.385 33.2563 103.226 33.2569 103.222 34.6487Z" fill="#2E3192"/>
<path d="M103.222 22.6008C103.212 26.2219 103.202 29.8431 103.191 33.4635C103.171 40.4641 94.6949 42.4081 88.9954 42.5445C83.3939 42.6782 74.0368 40.6568 74.0567 33.6297C74.0673 29.9252 74.0779 26.2199 74.0885 22.5154C73.3688 22.5154 72.649 22.5154 71.9293 22.5154C72.271 30.19 82.2266 32.5531 88.3803 32.7001C94.6294 32.8497 104.997 30.3469 105.381 22.6008C105.45 21.2084 103.291 21.215 103.222 22.6008C102.914 28.8015 93.8097 30.4264 89.0298 30.5409C84.1037 30.6588 74.3732 28.9108 74.0885 22.5154C74.0269 21.1309 71.9333 21.117 71.9293 22.5154C71.9181 26.4901 71.9068 30.4654 71.8955 34.4401C71.8737 42.1558 82.3895 44.5613 88.3465 44.7036C94.34 44.8467 105.325 42.3399 105.347 34.5845C105.358 30.5899 105.37 26.5954 105.381 22.6008C105.385 21.2084 103.226 21.2084 103.222 22.6008Z" fill="#2E3192"/>
<path d="M99.1405 17.0815C101.484 18.5096 103.728 20.6761 103.085 23.6589C102.429 26.6974 98.8737 28.4394 96.2352 29.369C90.541 31.3759 83.4702 30.9634 78.1732 28.0355C75.7876 26.7173 73.6007 24.3634 74.2264 21.4594C74.8805 18.4209 78.4368 16.6795 81.0753 15.7499C86.7689 13.743 93.8423 14.1536 99.1405 17.0815C100.36 17.7555 101.449 15.891 100.23 15.2169C93.5907 11.5468 84.8613 11.4945 78.0309 14.6766C74.9554 16.1095 72.3844 18.6394 71.948 22.0957C71.515 25.5228 74.4535 28.2971 77.0834 29.8994C83.4682 33.7893 92.6677 33.5218 99.2783 30.4423C102.354 29.0095 104.925 26.4782 105.364 23.022C105.799 19.5949 102.861 16.8193 100.231 15.2169C99.0379 14.4912 97.954 16.3584 99.1405 17.0815Z" fill="#2E3192"/>
<path d="M73.5013 313.172C67.9494 313.267 63.4762 317.371 62.8107 322.862C62.142 328.387 66.2504 333.468 71.5898 334.489C77.0218 335.528 82.2896 332.026 83.8469 326.828C85.4426 321.499 82.3644 315.957 77.3714 313.894C76.1518 313.39 74.8136 313.194 73.5013 313.172C72.675 313.158 72.6763 314.438 73.5013 314.452C78.7274 314.542 82.8756 318.691 82.9656 323.917C83.0557 329.143 78.5917 333.294 73.5013 333.381C68.2752 333.471 64.1244 329.007 64.037 323.917C63.9469 318.691 68.4109 314.54 73.5013 314.452C74.3263 314.438 74.3276 313.158 73.5013 313.172Z" fill="#2E3192"/>
<path d="M94.5315 354.099C88.1553 354.099 81.7784 354.099 75.4022 354.099C74.1767 354.099 72.9504 354.099 71.7248 354.099C71.5639 354.099 71.0607 354.007 71.3838 354.119C71.0455 354.001 70.7065 353.882 70.3682 353.764C66.8569 352.536 63.3457 351.308 59.8345 350.08C59.3591 349.914 58.8844 349.748 58.409 349.582C57.9269 349.413 58.836 350.14 58.3785 349.518C57.4476 348.253 56.5166 346.989 55.5857 345.724C53.6867 343.145 51.7878 340.566 49.8888 337.987C49.812 338.279 49.7359 338.571 49.6591 338.863C53.9218 336.442 57.7316 341.704 59.8842 344.689C60.3887 345.389 60.878 345.454 61.6984 345.683C63.3418 346.141 64.9851 346.6 66.6278 347.059C67.8872 347.411 69.1465 347.762 70.4059 348.114C71.0627 348.297 71.9089 347.634 72.4638 347.352C74.9666 346.083 77.4687 344.813 79.9715 343.544C80.5542 343.249 80.2622 342.351 79.6484 342.351C77.1714 342.349 74.6951 342.348 72.2181 342.346C71.6692 342.346 71.1203 342.346 70.5714 342.345C70.1675 342.345 69.7683 342.198 70.2 342.41C68.6659 341.654 68.009 339.923 67.9633 338.309C67.7501 338.522 67.5363 338.736 67.3231 338.95C73.3517 338.95 79.3802 338.95 85.4088 338.95C86.0829 338.95 85.3254 338.772 85.4055 338.834C85.8564 339.185 86.3073 339.535 86.7582 339.886C88.3202 341.101 89.8828 342.316 91.4447 343.531C92.0684 344.016 92.6915 344.501 93.3152 344.986C93.5019 345.131 93.6886 345.276 93.8753 345.422C94.2435 345.708 93.8919 345.461 93.8919 345.163C93.8919 346.627 93.8919 348.091 93.8919 349.555C93.8919 351.283 93.8919 353.011 93.8919 354.739C93.8919 355.565 95.1724 355.565 95.1724 354.739C95.1724 351.669 95.1724 348.598 95.1724 345.528C95.1724 344.591 94.5315 344.323 93.8323 343.779C92.2975 342.585 90.7627 341.391 89.2279 340.198C88.2268 339.419 87.2257 338.64 86.2246 337.862C85.6982 337.452 84.5891 337.67 83.976 337.67C80.1456 337.67 76.3153 337.67 72.4849 337.67C70.7648 337.67 69.0439 337.67 67.3237 337.67C66.9821 337.67 66.6735 337.961 66.6835 338.31C66.7378 340.211 67.4336 342.029 69.0115 343.172C69.6948 343.667 70.2092 343.625 71.0329 343.626C73.9052 343.628 76.7768 343.629 79.6491 343.631C79.5411 343.233 79.4339 342.836 79.3259 342.438C76.8231 343.707 74.321 344.977 71.8182 346.247C71.3772 346.471 70.9363 346.694 70.4946 346.918C70.1583 347.089 70.8952 346.921 70.8383 346.904C70.6919 346.863 70.5456 346.823 70.3986 346.782C68.8479 346.349 67.2972 345.916 65.7466 345.483C64.278 345.073 62.8087 344.662 61.3402 344.252C61.2064 344.215 61.0733 344.178 60.9396 344.141C60.7304 344.082 61.4269 344.664 61.1323 344.244C60.6708 343.587 60.1815 342.951 59.6842 342.321C57.1847 339.157 53.3504 335.293 49.0122 337.756C48.7328 337.915 48.5772 338.353 48.7824 338.632C50.5834 341.079 52.385 343.525 54.186 345.972C55.1553 347.288 56.124 348.605 57.0933 349.92C57.5244 350.505 57.8276 350.731 58.5149 350.972C61.9758 352.182 65.4374 353.393 68.8983 354.603C69.5855 354.844 70.5052 355.379 71.2521 355.379C72.0824 355.379 72.912 355.379 73.7423 355.379C80.672 355.379 87.6018 355.379 94.5315 355.379C95.3572 355.379 95.3572 354.099 94.5315 354.099Z" fill="#2E3192"/>
<path d="M102.454 339.423C99.8136 339.423 97.1724 339.423 94.5319 339.423C94.1829 339.423 93.8916 339.714 93.8916 340.063C93.8916 346.34 93.8916 352.618 93.8916 358.895C93.8916 359.244 94.1829 359.535 94.5319 359.535C97.1724 359.535 99.8136 359.535 102.454 359.535C103.28 359.535 103.28 358.254 102.454 358.254C99.8136 358.254 97.1724 358.254 94.5319 358.254C94.7451 358.468 94.9589 358.681 95.1721 358.895C95.1721 352.618 95.1721 346.34 95.1721 340.063C94.9589 340.276 94.7451 340.49 94.5319 340.704C97.1724 340.704 99.8136 340.704 102.454 340.704C103.28 340.704 103.28 339.423 102.454 339.423Z" fill="#2E3192"/>
<path d="M71.0908 322.251L73.4705 323.571L78.8641 319.396L73.4897 324.879L71.0908 322.251Z" fill="#2E3192"/>
<path d="M76.8641 323.909C76.8641 324.372 76.7773 324.81 76.6039 325.222C76.4304 325.636 76.1907 325.995 75.8855 326.3C75.5796 326.606 75.22 326.845 74.8075 327.019C74.3944 327.192 73.9567 327.279 73.4939 327.279C73.0311 327.279 72.5934 327.192 72.1809 327.019C71.7678 326.845 71.4082 326.606 71.103 326.3C70.7971 325.995 70.5581 325.636 70.3846 325.222C70.2111 324.81 70.1244 324.372 70.1244 323.909C70.1244 323.447 70.2111 323.014 70.3846 322.608C70.5581 322.204 70.7971 321.849 71.103 321.543C71.4082 321.238 71.7678 320.998 72.1809 320.825C72.5934 320.651 73.0317 320.564 73.4939 320.564C73.9561 320.564 74.3944 320.651 74.8075 320.825C75.0247 320.916 75.2267 321.026 75.414 321.154L77.0594 319.645C76.6396 319.298 76.1742 319.014 75.6623 318.793C74.9936 318.504 74.2706 318.359 73.4939 318.359C72.7338 318.359 72.0154 318.504 71.338 318.793C70.6607 319.082 70.0701 319.479 69.5662 319.982C69.0623 320.486 68.6657 321.073 68.377 321.742C68.0877 322.41 67.9434 323.133 67.9434 323.91C67.9434 324.67 68.0877 325.389 68.377 326.066C68.6657 326.743 69.0623 327.339 69.5662 327.85C70.0701 328.363 70.66 328.763 71.338 329.052C72.0154 329.342 72.7338 329.486 73.4939 329.486C74.2699 329.486 74.9929 329.342 75.6623 329.052C76.3317 328.763 76.9217 328.362 77.4342 327.85C77.946 327.339 78.3466 326.744 78.6359 326.066C78.9246 325.389 79.0696 324.67 79.0696 323.91C79.0696 323.134 78.9246 322.411 78.6359 321.742C78.5618 321.57 78.4797 321.403 78.3909 321.242L76.6813 322.81C76.8025 323.156 76.8641 323.523 76.8641 323.909Z" fill="#3B84CC"/>
<path d="M37.3268 186.417C34.7379 186.417 32.149 186.417 29.5602 186.417C29.8104 186.745 30.0607 187.074 30.311 187.402C33.756 178.243 42.2483 171.842 52.0033 171.069C62.0212 170.275 71.5292 175.836 76.1733 184.645C76.4481 185.167 77.2347 185.136 77.5181 184.645C79.1091 181.889 80.7002 179.133 82.2913 176.377C82.4197 176.155 82.4522 175.81 82.2913 175.591C73.9737 164.287 59.8276 158.898 46.0966 161.889C33.4991 164.634 23.3786 174.643 19.9833 186.988C20.2336 186.797 20.4839 186.606 20.7341 186.416C17.9062 186.416 15.0777 186.416 12.2497 186.416C11.6571 186.416 11.2824 187.077 11.5777 187.588C15.7576 194.827 19.9369 202.066 24.1169 209.306C24.4082 209.811 25.1697 209.811 25.4617 209.306C29.6416 202.066 33.8209 194.827 38.0008 187.588C38.5041 186.716 37.158 185.932 36.6561 186.802C32.4761 194.041 28.2968 201.28 24.1169 208.52C24.5651 208.52 25.0134 208.52 25.4617 208.52C21.2817 201.28 17.1024 194.041 12.9225 186.802C12.6987 187.192 12.4742 187.583 12.2504 187.973C15.0783 187.973 17.9069 187.973 20.7348 187.973C21.0811 187.973 21.3936 187.735 21.4856 187.401C24.7353 175.587 34.1844 166.405 46.084 163.49C59.1178 160.296 73.0468 165.639 80.9478 176.377C80.9478 176.114 80.9478 175.853 80.9478 175.591C79.3568 178.346 77.7657 181.103 76.1746 183.858C76.6229 183.858 77.0711 183.858 77.5194 183.858C72.5019 174.339 62.2801 168.697 51.5498 169.547C41.2572 170.363 32.4132 177.413 28.812 186.988C28.6306 187.469 29.0914 187.973 29.5628 187.973C32.1517 187.973 34.7406 187.973 37.3295 187.973C38.3313 187.974 38.3313 186.417 37.3268 186.417Z" fill="#2E3192"/>
<path d="M90.2113 194.054C88.1216 190.435 86.0313 186.815 83.9417 183.195C83.6503 182.69 82.8889 182.69 82.5969 183.195C78.417 190.435 74.2377 197.673 70.0577 204.913C69.7631 205.424 70.1372 206.084 70.7298 206.084C73.512 206.084 76.2935 206.084 79.0758 206.084C78.8255 205.756 78.5752 205.428 78.3249 205.099C75.9247 215.326 67.4086 223.151 56.9544 224.493C45.9632 225.904 35.3753 219.639 30.8517 209.643C30.6041 209.096 29.7771 209.175 29.5069 209.643C27.8702 212.477 26.2334 215.312 24.5967 218.147C24.4642 218.377 24.4431 218.705 24.5967 218.933C32.9394 231.306 48.1932 237.19 62.6817 233.531C75.9069 230.191 86.0783 218.873 88.409 205.514C88.1587 205.704 87.9084 205.895 87.6581 206.085C90.3741 206.085 93.0908 206.085 95.8068 206.085C96.3994 206.085 96.7742 205.424 96.4789 204.914C94.3906 201.294 92.3009 197.674 90.2113 194.054C89.7094 193.185 88.364 193.969 88.8665 194.84C90.9561 198.46 93.0464 202.08 95.1361 205.7C95.3599 205.309 95.5844 204.918 95.8082 204.528C93.0921 204.528 90.3755 204.528 87.6595 204.528C87.3383 204.528 86.9675 204.763 86.9086 205.1C84.6713 217.923 75.2295 228.414 62.681 231.92C48.8712 235.779 33.9008 229.951 25.9421 218.148C25.9421 218.41 25.9421 218.671 25.9421 218.933C27.5788 216.099 29.2156 213.264 30.8524 210.429C30.4041 210.429 29.9559 210.429 29.5076 210.429C34.2888 220.997 45.4282 227.332 56.9544 226.051C68.0773 224.815 77.2867 216.336 79.8266 205.514C79.9418 205.024 79.5968 204.528 79.0758 204.528C76.2935 204.528 73.512 204.528 70.7298 204.528C70.9536 204.919 71.178 205.31 71.4018 205.7C75.5818 198.46 79.7611 191.221 83.941 183.982C83.4928 183.982 83.0445 183.982 82.5962 183.982C84.6859 187.601 86.7762 191.221 88.8658 194.841C89.3684 195.709 90.7138 194.926 90.2113 194.054Z" fill="#2E3192"/>
<path d="M54.1426 186.51L58.4146 188.88L68.098 181.384L58.449 191.23L54.1426 186.51Z" fill="#2E3192"/>
<path d="M64.5079 189.488C64.5079 190.319 64.3523 191.105 64.0404 191.846C63.7292 192.588 63.2988 193.233 62.7499 193.782C62.201 194.33 61.5555 194.76 60.8146 195.072C60.073 195.383 59.2864 195.539 58.4568 195.539C57.6258 195.539 56.8399 195.383 56.099 195.072C55.3574 194.761 54.7118 194.331 54.1636 193.782C53.6147 193.233 53.185 192.588 52.8731 191.846C52.5619 191.105 52.4057 190.319 52.4057 189.488C52.4057 188.658 52.5612 187.879 52.8731 187.152C53.1843 186.426 53.614 185.788 54.1636 185.239C54.7118 184.691 55.3574 184.26 56.099 183.948C56.8399 183.637 57.6258 183.482 58.4568 183.482C59.2871 183.482 60.073 183.637 60.8146 183.948C61.2045 184.112 61.5667 184.31 61.9031 184.539L64.8575 181.83C64.1033 181.207 63.2677 180.697 62.3494 180.3C61.1483 179.782 59.8505 179.521 58.4568 179.521C57.0921 179.521 55.8023 179.782 54.586 180.3C53.3697 180.819 52.3096 181.532 51.4052 182.435C50.5001 183.341 49.7883 184.393 49.2699 185.594C48.7508 186.796 48.4912 188.093 48.4912 189.487C48.4912 190.852 48.7508 192.141 49.2699 193.358C49.7883 194.574 50.5001 195.642 51.4052 196.561C52.3096 197.481 53.3697 198.2 54.586 198.719C55.8017 199.238 57.0921 199.498 58.4568 199.498C59.8505 199.498 61.1483 199.238 62.3494 198.719C63.5504 198.2 64.6105 197.481 65.5302 196.561C66.4492 195.642 67.1689 194.574 67.688 193.358C68.2064 192.142 68.4667 190.852 68.4667 189.487C68.4667 188.093 68.2064 186.796 67.688 185.594C67.5543 185.286 67.4079 184.987 67.2477 184.698L64.1781 187.513C64.3973 188.136 64.5079 188.794 64.5079 189.488Z" fill="#3B84CC"/>
<path d="M54.8122 201.61C54.8036 204.64 51.4294 205.457 48.8968 205.554C46.4649 205.647 42.469 204.803 42.4776 201.777C42.4796 201.173 42.4809 200.568 42.4829 199.964C45.3115 202.432 51.2791 202.556 54.399 200.323C54.2587 200.269 54.1183 200.215 53.9792 200.156C53.5012 199.952 53.045 199.719 52.6087 199.461C52.1995 199.633 51.783 199.768 51.4089 199.879C49.0716 200.57 46.298 200.309 44.1561 199.156C42.9642 198.514 42.0869 197.342 42.7795 196.026C43.3509 194.938 44.8122 194.412 45.9067 194.088C46.4986 193.913 47.1184 193.8 47.7487 193.746C47.5534 193.262 47.3918 192.767 47.2673 192.263C46.0318 192.41 44.8202 192.745 43.6999 193.271C42.4167 193.874 41.0593 195.137 40.9574 196.641C40.9541 196.688 40.9554 196.732 40.954 196.778C40.9415 196.836 40.9342 196.898 40.9342 196.964C40.9289 198.741 40.9243 200.517 40.919 202.293C40.919 202.408 40.9236 202.522 40.9329 202.631C40.9282 204.301 40.9236 205.971 40.919 207.641C40.919 207.756 40.9236 207.869 40.9329 207.979C40.9282 209.647 40.9236 211.315 40.919 212.982C40.909 216.554 45.6697 217.695 48.4333 217.801C51.1454 217.906 56.0828 216.776 56.341 213.361C56.4827 211.486 56.3768 209.572 56.3821 207.692C56.3874 207.621 56.3827 207.556 56.3728 207.495C56.4622 205.788 56.3774 204.056 56.3821 202.35C56.3874 202.278 56.3827 202.213 56.3721 202.151C56.3946 201.728 56.4059 201.303 56.4105 200.877C55.8676 200.781 55.3353 200.646 54.8148 200.471C54.8142 200.85 54.8135 201.23 54.8122 201.61ZM54.8122 212.299C54.8036 215.33 51.4294 216.146 48.8968 216.243C46.4649 216.337 42.469 215.492 42.4776 212.466C42.4796 211.861 42.4809 211.258 42.4829 210.653C45.4426 213.236 51.8426 213.254 54.8168 210.687C54.8155 211.225 54.8135 211.762 54.8122 212.299ZM54.8122 206.958C54.8036 209.988 51.4294 210.805 48.8968 210.902C46.4649 210.995 42.469 210.15 42.4776 207.125C42.4796 206.52 42.4809 205.916 42.4829 205.312C45.4426 207.895 51.8426 207.913 54.8168 205.346C54.8155 205.884 54.8135 206.421 54.8122 206.958Z" fill="#2E3192"/>
</svg>
