<svg width="114" height="378" viewBox="0 0 114 378" fill="none" xmlns="http://www.w3.org/2000/svg">
<path d="M57.1943 112.494C87.653 112.494 112.345 87.8019 112.345 57.3431C112.345 26.8844 87.653 2.19275 57.1943 2.19275C26.7356 2.19275 2.04395 26.8844 2.04395 57.3431C2.04395 87.8019 26.7356 112.494 57.1943 112.494Z" fill="white"/>
<path d="M110.689 57.343C110.423 89.6142 81.4579 114.814 49.4032 110.287C34.3859 108.165 20.9299 99.3386 12.531 86.8009C3.86136 73.8593 1.62211 57.4727 5.77022 42.5508C12.8766 16.9854 38.9605 0.72268 64.9847 4.39805C91.0949 8.08732 110.474 31.24 110.689 57.343C110.707 59.4769 114.018 59.4783 114 57.343C113.754 27.5812 90.55 2.8699 60.8941 0.659782C31.5289 -1.52849 4.49965 20.8779 0.872619 50.0094C-2.81665 79.6421 17.3949 107.552 46.7429 113.183C75.9439 118.785 104.84 99.8279 112.273 71.2956C113.457 66.7529 113.961 62.028 114 57.343C114.018 55.2077 110.707 55.209 110.689 57.343Z" fill="#041D44"/>
<path d="M60.4453 376.431C85.4189 376.431 105.664 356.186 105.664 331.212C105.664 306.238 85.4189 285.993 60.4453 285.993C35.4717 285.993 15.2266 306.238 15.2266 331.212C15.2266 356.186 35.4717 376.431 60.4453 376.431Z" fill="white"/>
<path d="M104.009 331.212C103.854 346.724 95.7432 360.859 82.4328 368.828C69.0112 376.862 51.9063 376.534 38.4582 368.828C25.0703 361.156 17.035 346.5 16.8821 331.212C16.7278 315.787 25.3464 301.446 38.4582 293.596C51.8798 285.561 68.9847 285.89 82.4328 293.596C95.8207 301.267 103.856 315.924 104.009 331.212C104.03 333.345 107.341 333.348 107.32 331.212C107.176 316.826 100.689 303.347 89.4174 294.376C78.153 285.41 63.2059 282.43 49.2678 285.679C35.5536 288.876 23.9653 298.761 17.9672 311.384C11.7752 324.415 12.33 339.78 18.726 352.597C28.3729 371.93 50.8675 381.582 71.6233 376.744C92.5155 371.873 107.108 352.368 107.32 331.211C107.341 329.076 104.03 329.078 104.009 331.212Z" fill="#041D44"/>
<path d="M75.6679 217.187C91.4937 217.187 104.323 204.357 104.323 188.532C104.323 172.706 91.4937 159.876 75.6679 159.876C59.8421 159.876 47.0127 172.706 47.0127 188.532C47.0127 204.357 59.8421 217.187 75.6679 217.187Z" fill="white"/>
<path d="M102.666 188.532C102.43 203.425 90.5603 215.295 75.6666 215.532C60.7716 215.768 48.8978 203.07 48.6667 188.532C48.4303 173.637 61.1284 161.763 75.6666 161.532C90.5616 161.295 102.436 173.994 102.666 188.532C102.7 190.664 106.011 190.668 105.977 188.532C105.748 174.104 95.7228 161.755 81.5521 158.797C67.7397 155.914 53.1353 163.735 47.7536 176.737C42.1634 190.243 46.9724 205.527 58.8998 213.783C70.849 222.054 87.3496 219.709 97.4019 209.657C102.976 204.083 105.853 196.333 105.977 188.532C106.011 186.396 102.7 186.399 102.666 188.532Z" fill="#041D44"/>
<path d="M43.2919 354.234C40.321 354.234 37.3501 354.234 34.3785 354.234C34.656 354.511 34.9327 354.788 35.2101 355.065C35.2101 350.247 35.2101 345.429 35.2101 340.611C34.9327 340.888 34.656 341.165 34.3785 341.442C37.3494 341.442 40.321 341.442 43.2919 341.442C43.0145 341.165 42.7378 340.888 42.4603 340.611C42.4603 345.429 42.4603 350.247 42.4603 355.065C42.4603 356.138 44.1236 356.138 44.1236 355.065C44.1236 350.247 44.1236 345.429 44.1236 340.611C44.1236 340.157 43.7455 339.779 43.2919 339.779C40.321 339.779 37.3501 339.779 34.3785 339.779C33.925 339.779 33.5469 340.157 33.5469 340.611C33.5469 345.429 33.5469 350.247 33.5469 355.065C33.5469 355.519 33.925 355.897 34.3785 355.897C37.3494 355.897 40.321 355.897 43.2919 355.897C44.3646 355.897 44.3646 354.234 43.2919 354.234Z" fill="#2E3192"/>
<path d="M56.7412 354.234C53.7702 354.234 50.7986 354.234 47.8277 354.234C48.1051 354.511 48.3819 354.788 48.6594 355.065C48.6594 347.391 48.6594 339.718 48.6594 332.044C48.3819 332.322 48.1051 332.598 47.8277 332.876C50.7986 332.876 53.7696 332.876 56.7412 332.876C56.4637 332.598 56.187 332.322 55.9096 332.044C55.9096 339.718 55.9096 347.391 55.9096 355.065C55.9096 356.138 57.5728 356.138 57.5728 355.065C57.5728 347.391 57.5728 339.718 57.5728 332.044C57.5728 331.591 57.1947 331.213 56.7412 331.213C53.7702 331.213 50.7986 331.213 47.8277 331.213C47.3742 331.213 46.9961 331.591 46.9961 332.044C46.9961 339.718 46.9961 347.391 46.9961 355.065C46.9961 355.519 47.3742 355.897 47.8277 355.897C50.7986 355.897 53.7696 355.897 56.7412 355.897C57.8138 355.897 57.8138 354.234 56.7412 354.234Z" fill="#2E3192"/>
<path d="M70.1904 354.234C67.2195 354.234 64.2485 354.234 61.2769 354.234C61.5543 354.511 61.8311 354.788 62.1086 355.065C62.1086 343.697 62.1086 332.328 62.1086 320.96C61.8311 321.237 61.5543 321.514 61.2769 321.791C64.2478 321.791 67.2195 321.791 70.1904 321.791C69.913 321.514 69.6362 321.237 69.3587 320.96C69.3587 332.328 69.3587 343.697 69.3587 355.065C69.3587 356.138 71.022 356.138 71.022 355.065C71.022 343.697 71.022 332.328 71.022 320.96C71.022 320.506 70.6439 320.128 70.1904 320.128C67.2195 320.128 64.2485 320.128 61.2769 320.128C60.8234 320.128 60.4453 320.506 60.4453 320.96C60.4453 332.328 60.4453 343.697 60.4453 355.065C60.4453 355.519 60.8234 355.897 61.2769 355.897C64.2478 355.897 67.2195 355.897 70.1904 355.897C71.263 355.897 71.263 354.234 70.1904 354.234Z" fill="#2E3192"/>
<path d="M83.6396 354.234C80.6687 354.234 77.6971 354.234 74.7261 354.234C75.0036 354.511 75.2804 354.788 75.5578 355.065C75.5578 338.91 75.5578 322.754 75.5578 306.598C75.5578 305.808 75.5578 305.019 75.5578 304.229C75.2804 304.507 75.0036 304.783 74.7261 305.061C77.6971 305.061 80.668 305.061 83.6396 305.061C83.3622 304.783 83.0854 304.507 82.808 304.229C82.808 320.385 82.808 336.541 82.808 352.696C82.808 353.486 82.808 354.275 82.808 355.065C82.808 356.138 84.4712 356.138 84.4712 355.065C84.4712 338.91 84.4712 322.754 84.4712 306.598C84.4712 305.808 84.4712 305.019 84.4712 304.229C84.4712 303.776 84.0932 303.398 83.6396 303.398C80.6687 303.398 77.6971 303.398 74.7261 303.398C74.2726 303.398 73.8945 303.776 73.8945 304.229C73.8945 320.385 73.8945 336.541 73.8945 352.696C73.8945 353.486 73.8945 354.275 73.8945 355.065C73.8945 355.519 74.2726 355.897 74.7261 355.897C77.6971 355.897 80.668 355.897 83.6396 355.897C84.7116 355.897 84.7116 354.234 83.6396 354.234Z" fill="#2E3192"/>
<path d="M36.4823 328.852C40.5226 327.413 44.3946 325.342 48.0542 323.131C55.7871 318.461 62.7658 312.348 67.6972 304.73C68.2819 303.827 66.8418 302.994 66.2611 303.89C61.4707 311.291 54.6939 317.127 47.2152 321.695C43.6948 323.845 39.9392 325.86 36.0407 327.248C35.0369 327.606 35.4693 329.213 36.4823 328.852Z" fill="#2E3192"/>
<path d="M69.337 299.744L69.4853 302.877L69.6337 306.01L66.8461 304.572L64.0586 303.134L66.6978 301.439L69.337 299.744Z" fill="#2E3192"/>
<path d="M75.6386 36.7462C75.4804 46.9177 67.3661 55.0319 57.1947 55.1902C47.0219 55.3484 38.905 46.6793 38.7507 36.7462C38.5925 26.5734 47.2616 18.4565 57.1947 18.3022C67.3668 18.144 75.4837 26.8131 75.6386 36.7462C75.6612 38.1843 77.8932 38.1863 77.8713 36.7462C77.721 27.0912 71.1455 18.8008 61.7269 16.5695C52.3142 14.3394 42.5493 19.4318 38.4442 28.0334C34.3615 36.5886 37.0233 47.3341 44.527 53.076C52.303 59.0265 62.9955 58.6683 70.5377 52.5371C75.2473 48.708 77.7786 42.7364 77.8713 36.7468C77.8932 35.3061 75.6612 35.3081 75.6386 36.7462Z" fill="#2E3192"/>
<path d="M72.079 54.9743C66.1775 59.8992 58.4334 61.5677 51.0104 59.6131C49.2796 59.1576 47.6435 58.4286 46.0723 57.5831C45.2533 57.1421 44.4819 56.6204 43.7205 56.0887C43.1769 55.7093 42.5002 54.8757 41.8169 54.6876C40.8376 54.4182 39.367 55.3862 38.4699 55.7682C36.9702 56.4071 35.5506 57.215 34.1939 58.1141C24.6806 64.4155 22.4751 76.5547 22.9651 87.2076C22.9929 87.8154 23.4517 88.3239 24.0814 88.3239C45.5009 88.3239 66.9205 88.3239 88.34 88.3239C88.9961 88.3239 89.6523 88.3239 90.3084 88.3239C90.9381 88.3239 91.397 87.8154 91.4248 87.2076C91.7313 80.542 90.9958 73.5249 88.1877 67.4136C85.2757 61.0771 79.5994 56.9706 73.1662 54.6876C71.8062 54.205 71.2262 56.3621 72.573 56.8402C78.5923 58.9768 83.443 62.7397 86.2603 68.5405C88.9935 74.1685 89.4755 81.0505 89.1928 87.2076C89.5649 86.8355 89.937 86.4634 90.3091 86.0913C68.8896 86.0913 47.4701 86.0913 26.0505 86.0913C25.3944 86.0913 24.7382 86.0913 24.0821 86.0913C24.4542 86.4634 24.8263 86.8355 25.1984 87.2076C24.919 81.1333 25.4659 74.6472 27.9111 69.0185C30.5404 62.9668 35.7088 59.0086 41.8182 56.8402C41.456 56.7442 41.0945 56.6488 40.7323 56.5528C50.3496 64.5784 64.0416 64.5784 73.6595 56.5528C74.7639 55.6298 73.1755 54.0593 72.079 54.9743Z" fill="#2E3192"/>
<path d="M69.8344 180.12C65.0711 180.179 60.7594 182.813 58.5645 187.048C56.3577 191.305 56.9284 196.586 59.7835 200.386C62.6438 204.193 67.4376 205.931 72.0863 205.172C76.7277 204.416 80.5051 200.847 81.9148 196.433C84.4858 188.384 78.0732 180.222 69.8344 180.12C69.1213 180.111 69.122 181.216 69.8344 181.225C75.1075 181.29 79.6503 184.824 81.0077 189.921C82.3716 195.043 79.798 200.423 75.232 202.93C70.5733 205.488 64.7083 204.233 61.1978 200.376C57.621 196.446 57.4667 190.442 60.3999 186.128C62.5054 183.031 66.1358 181.271 69.8344 181.226C70.5462 181.216 70.5475 180.111 69.8344 180.12Z" fill="#2E3192"/>
<path d="M84.7774 195.008C88.9242 193.996 92.2169 191.051 93.7564 187.083C95.3064 183.088 94.5125 178.308 91.8726 174.961C89.1705 171.535 84.9462 169.746 80.6054 170.154C76.1228 170.574 72.2017 173.538 70.3624 177.606C70.071 178.25 71.0232 178.812 71.3165 178.163C73.0208 174.394 76.4771 171.757 80.6054 171.259C84.4476 170.795 88.2224 172.407 90.7318 175.298C93.3167 178.276 94.0166 182.496 92.887 186.219C91.7091 190.101 88.3707 192.993 84.4827 193.942C83.7915 194.111 84.0848 195.176 84.7774 195.008Z" fill="#2E3192"/>
<path d="M70.4126 197.465V199.054H69.1479V197.558C68.1766 197.527 67.2052 197.249 66.6504 196.879L67.0669 195.43C67.6681 195.785 68.5321 196.109 69.4724 196.109C70.4437 196.109 71.1071 195.631 71.1071 194.89C71.1071 194.196 70.5675 193.749 69.4266 193.333C67.8078 192.747 66.759 192.007 66.759 190.573C66.759 189.246 67.684 188.229 69.2419 187.951V186.44H70.5066V187.874C71.4779 187.906 72.1414 188.137 72.6346 188.383L72.2181 189.802C71.848 189.632 71.1694 189.278 70.1212 189.278C69.042 189.278 68.6566 189.832 68.6566 190.357C68.6566 190.989 69.2121 191.343 70.5225 191.868C72.2493 192.515 73.02 193.348 73.02 194.72C73.0186 196.032 72.1089 197.188 70.4126 197.465Z" fill="#2E3192"/>
</svg>
