<svg width="478" height="340" viewBox="0 0 478 340" fill="none" xmlns="http://www.w3.org/2000/svg">
<path d="M231.57 104.669V178.737" stroke="#2E3192" stroke-width="8.21449" stroke-miterlimit="10"/>
<path d="M143.402 104.669L198.926 184.487" stroke="#2E3192" stroke-width="8.21449" stroke-miterlimit="10"/>
<path d="M313.443 104.669L257.92 184.487" stroke="#2E3192" stroke-width="8.21449" stroke-miterlimit="10"/>
<path d="M128.615 104.669C128.615 49.5475 173.3 4.86307 228.421 4.86307C283.543 4.86307 328.227 49.5475 328.227 104.669H128.615Z" stroke="#2E3192" stroke-width="8.21449" stroke-miterlimit="10"/>
<path d="M178.996 104.669C178.996 104.669 188.306 24.8514 228.42 4.86307" stroke="#2E3192" stroke-width="8.21449" stroke-miterlimit="10"/>
<path d="M277.846 104.669C277.846 104.669 268.537 24.8514 228.422 4.86307" stroke="#2E3192" stroke-width="8.21449" stroke-miterlimit="10"/>
<path d="M192.004 230.113L227.882 250.019L309.216 187.061L228.171 269.751L192.004 230.113Z" fill="#2E3192"/>
<path d="M279.053 255.128C279.053 262.105 277.745 268.709 275.129 274.932C272.514 281.161 268.899 286.579 264.293 291.187C259.681 295.799 254.263 299.406 248.039 302.022C241.809 304.639 235.206 305.945 228.234 305.945C221.258 305.945 214.654 304.639 208.431 302.022C202.201 299.406 196.783 295.799 192.176 291.187C187.563 286.58 183.956 281.161 181.34 274.932C178.724 268.709 177.417 262.106 177.417 255.128C177.417 248.157 178.724 241.618 181.34 235.511C183.956 229.41 187.563 224.055 192.176 219.443C196.783 214.836 202.201 211.223 208.431 208.607C214.654 205.991 221.257 204.685 228.234 204.685C235.206 204.685 241.809 205.991 248.039 208.607C251.311 209.983 254.355 211.642 257.182 213.568L281.997 190.815C275.666 185.588 268.645 181.303 260.93 177.966C250.841 173.611 239.941 171.428 228.234 171.428C216.773 171.428 205.938 173.612 195.726 177.966C185.509 182.329 176.605 188.308 169.01 195.903C161.409 203.504 155.429 212.344 151.074 222.434C146.712 232.521 144.535 243.423 144.535 255.129C144.535 266.589 146.713 277.425 151.074 287.636C155.429 297.854 161.408 306.821 169.01 314.54C176.605 322.264 185.509 328.306 195.726 332.663C205.938 337.024 216.774 339.202 228.234 339.202C239.941 339.202 250.841 337.024 260.93 332.663C271.019 328.306 279.923 322.264 287.647 314.54C295.366 306.821 301.409 297.854 305.769 287.636C310.125 277.425 312.308 266.588 312.308 255.129C312.308 243.423 310.125 232.521 305.769 222.434C304.649 219.841 303.415 217.331 302.072 214.903L276.292 238.54C278.124 243.768 279.053 249.294 279.053 255.128Z" fill="#3B84CC"/>
<path d="M427.839 130.788H398.602C398.866 129.949 399.009 129.057 399.009 128.131C399.009 123.242 395.045 119.278 390.155 119.278H367.201C362.312 119.278 358.348 123.241 358.348 128.131C358.348 133.021 362.311 136.985 367.201 136.985H371.921C371.658 137.824 371.515 138.716 371.515 139.641C371.515 144.531 375.478 148.495 380.368 148.495H427.839C432.728 148.495 436.693 144.532 436.693 139.641C436.693 134.751 432.728 130.788 427.839 130.788Z" stroke="#3B84CC" stroke-width="4.10725" stroke-miterlimit="10"/>
<path d="M76.0427 168.037H66.8688C67.1481 167.135 67.2992 166.176 67.2992 165.181C67.2992 159.86 62.985 155.546 57.6636 155.546H23.0461C17.7239 155.546 13.4105 159.86 13.4105 165.181C13.4105 166.175 13.5617 167.134 13.8409 168.037H12.5184C7.19706 168.037 2.88281 172.351 2.88281 177.672C2.88281 182.994 7.19706 187.308 12.5184 187.308H76.0427C81.3641 187.308 85.6783 182.994 85.6783 177.672C85.6783 172.351 81.3641 168.037 76.0427 168.037Z" stroke="#3B84CC" stroke-width="4.10725" stroke-miterlimit="10"/>
<path d="M461.096 284.537H459.314C459.314 276.371 452.694 269.751 444.528 269.751H391.408C383.242 269.751 376.622 276.371 376.622 284.537C376.622 284.576 376.627 284.614 376.627 284.654C369.3 285.533 363.617 291.759 363.617 299.323C363.617 307.489 370.237 314.109 378.403 314.109H461.096C469.262 314.109 475.882 307.489 475.882 299.323C475.882 291.156 469.262 284.537 461.096 284.537Z" stroke="#3B84CC" stroke-width="4.10725" stroke-miterlimit="10"/>
<path d="M94.9371 211.595C94.9371 212.498 94.1978 213.238 93.2942 213.238H38.805C37.9014 213.238 37.1621 212.498 37.1621 211.595V210.773C37.1621 209.87 37.9014 209.13 38.805 209.13H93.2942C94.1978 209.13 94.9371 209.87 94.9371 210.773V211.595Z" fill="#3B84CC"/>
<path d="M416.397 241.44C416.397 242.344 415.658 243.083 414.754 243.083H345.479C344.575 243.083 343.836 242.344 343.836 241.44V240.619C343.836 239.715 344.575 238.976 345.479 238.976H414.754C415.658 238.976 416.397 239.715 416.397 240.619V241.44Z" fill="#3B84CC"/>
<path d="M427.143 226.763C427.143 227.666 426.403 228.406 425.5 228.406H393.19C392.286 228.406 391.547 227.666 391.547 226.763V225.941C391.547 225.038 392.286 224.299 393.19 224.299H425.5C426.403 224.299 427.143 225.038 427.143 225.941V226.763Z" fill="#3B84CC"/>
<path d="M105.342 81.8058C105.342 82.7094 104.603 83.4487 103.699 83.4487H71.389C70.4854 83.4487 69.7461 82.7094 69.7461 81.8058V80.9843C69.7461 80.0807 70.4854 79.3414 71.389 79.3414H103.699C104.603 79.3414 105.342 80.0807 105.342 80.9843V81.8058Z" fill="#3B84CC"/>
<path d="M75.9068 222.821C75.9068 223.725 75.1675 224.464 74.2639 224.464H4.9886C4.08501 224.464 3.3457 223.725 3.3457 222.821V222C3.3457 221.096 4.08501 220.357 4.9886 220.357H74.2639C75.1675 220.357 75.9068 221.096 75.9068 222V222.821Z" fill="#3B84CC"/>
</svg>
