<svg width="15" height="15" viewBox="0 0 15 15" fill="none" xmlns="http://www.w3.org/2000/svg">
<path d="M13.4285 1H8.85712C8.54153 1 8.28568 1.25585 8.28568 1.57144C8.28568 1.88702 8.54153 2.14287 8.85712 2.14287H12.049L6.16738 8.02454C5.94421 8.2477 5.94421 8.60948 6.16738 8.83264C6.27892 8.94421 6.42516 9 6.5714 9C6.71764 9 6.86391 8.94424 6.97548 8.83262L12.8571 2.95098V6.14287C12.8571 6.45846 13.113 6.71431 13.4286 6.71431C13.7442 6.71431 14 6.45846 14 6.14287V1.57144C14 1.25585 13.7441 1 13.4285 1Z" fill="#4AA3E0" stroke="#4AA3E0" stroke-width="0.3"/>
<path d="M11.8182 6.81817C11.4667 6.81817 11.1818 7.10309 11.1818 7.45454V13.1818H2.27271V4.27271H7C7.35145 4.27271 7.63637 3.98779 7.63637 3.63634C7.63637 3.28489 7.35145 3 7 3H1.63637C1.28492 3 1 3.28492 1 3.63637V13.8182C1 14.1696 1.28492 14.4545 1.63637 14.4545H11.8182C12.1696 14.4545 12.4546 14.1696 12.4546 13.8182V7.45454C12.4545 7.10309 12.1696 6.81817 11.8182 6.81817Z" fill="#4AA3E0" stroke="#4AA3E0" stroke-width="0.3"/>
</svg>
