<?xml version="1.0" encoding="utf-8"?>
<!-- Generator: Adobe Illustrator 17.0.0, SVG Export Plug-In . SVG Version: 6.00 Build 0)  -->
<!DOCTYPE svg PUBLIC "-//W3C//DTD SVG 1.1//EN" "http://www.w3.org/Graphics/SVG/1.1/DTD/svg11.dtd">
<svg version="1.1" xmlns="http://www.w3.org/2000/svg" xmlns:xlink="http://www.w3.org/1999/xlink" x="0px" y="0px" width="286px"
	 height="250px" viewBox="0 0 286 250" enable-background="new 0 0 286 250" xml:space="preserve">
<g id="Layer_1">
	<polygon fill="#3C86C9" points="100.986,94.293 144.663,118.527 243.675,41.885 145.015,142.547 	"/>
	<g>
		<path fill="#FFFFFF" d="M206.958,124.746c0,8.493-1.592,16.532-4.776,24.108c-3.184,7.583-7.584,14.179-13.191,19.788
			c-5.615,5.615-12.211,10.006-19.788,13.191c-7.584,3.185-15.622,4.775-24.109,4.775c-8.493,0-16.532-1.59-24.108-4.775
			c-7.584-3.185-14.179-7.576-19.788-13.191c-5.615-5.608-10.007-12.205-13.191-19.788c-3.185-7.576-4.776-15.614-4.776-24.108
			c0-8.487,1.591-16.447,4.776-23.881c3.184-7.427,7.576-13.946,13.191-19.561c5.608-5.608,12.204-10.006,19.788-13.191
			c7.576-3.185,15.614-4.775,24.108-4.775c8.487,0,16.525,1.59,24.109,4.775c3.984,1.675,7.689,3.694,11.131,6.039l30.209-27.699
			c-7.708-6.363-16.254-11.579-25.647-15.641c-12.282-5.302-25.551-7.96-39.802-7.96c-13.952,0-27.143,2.659-39.574,7.96
			c-12.438,5.311-23.277,12.589-32.523,21.836c-9.254,9.253-16.533,20.014-21.835,32.297c-5.31,12.28-7.96,25.552-7.96,39.802
			c0,13.951,2.651,27.142,7.96,39.573c5.302,12.438,12.58,23.355,21.835,32.752c9.246,9.402,20.085,16.758,32.523,22.062
			c12.432,5.308,25.623,7.96,39.574,7.96c14.251,0,27.521-2.652,39.802-7.96c12.283-5.304,23.122-12.66,32.525-22.062
			c9.396-9.397,16.753-20.314,22.061-32.752c5.303-12.431,7.96-25.623,7.96-39.573c0-14.251-2.658-27.522-7.96-39.802
			c-1.364-3.157-2.866-6.212-4.501-9.168l-31.383,28.775C205.827,110.916,206.958,117.645,206.958,124.746z"/>
	</g>
	<g opacity="0.2">
		<linearGradient id="SVGID_1_" gradientUnits="userSpaceOnUse" x1="145.3214" y1="220.7469" x2="145.3214" y2="19.7493">
			<stop  offset="0.1485" style="stop-color:#244185;stop-opacity:0.9"/>
			<stop  offset="1" style="stop-color:#2484C6;stop-opacity:0"/>
		</linearGradient>
		<path fill="url(#SVGID_1_)" d="M206.958,124.746c0,8.493-1.592,16.532-4.776,24.108c-3.184,7.583-7.584,14.179-13.191,19.788
			c-5.615,5.615-12.211,10.006-19.788,13.191c-7.584,3.185-15.622,4.775-24.109,4.775c-8.493,0-16.532-1.59-24.108-4.775
			c-7.584-3.185-14.179-7.576-19.788-13.191c-5.615-5.608-10.007-12.205-13.191-19.788c-3.185-7.576-4.776-15.614-4.776-24.108
			c0-8.487,1.591-16.447,4.776-23.881c3.184-7.427,7.576-13.946,13.191-19.561c5.608-5.608,12.204-10.006,19.788-13.191
			c7.576-3.185,15.614-4.775,24.108-4.775c8.487,0,16.525,1.59,24.109,4.775c3.984,1.675,7.689,3.694,11.131,6.039l30.209-27.699
			c-7.708-6.363-16.254-11.579-25.647-15.641c-12.282-5.302-25.551-7.96-39.802-7.96c-13.952,0-27.143,2.659-39.574,7.96
			c-12.438,5.311-23.277,12.589-32.523,21.836c-9.254,9.253-16.533,20.014-21.835,32.297c-5.31,12.28-7.96,25.552-7.96,39.802
			c0,13.951,2.651,27.142,7.96,39.573c5.302,12.438,12.58,23.355,21.835,32.752c9.246,9.402,20.085,16.758,32.523,22.062
			c12.432,5.308,25.623,7.96,39.574,7.96c14.251,0,27.521-2.652,39.802-7.96c12.283-5.304,23.122-12.66,32.525-22.062
			c9.396-9.397,16.753-20.314,22.061-32.752c5.303-12.431,7.96-25.623,7.96-39.573c0-14.251-2.658-27.522-7.96-39.802
			c-1.364-3.157-2.866-6.212-4.501-9.168l-31.383,28.775C205.827,110.916,206.958,117.645,206.958,124.746z"/>
	</g>
</g>
<g id="Isolation_Mode">
</g>
</svg>
