<?xml version="1.0" encoding="utf-8"?>
<!-- Generator: Adobe Illustrator 17.0.0, SVG Export Plug-In . SVG Version: 6.00 Build 0)  -->
<!DOCTYPE svg PUBLIC "-//W3C//DTD SVG 1.1//EN" "http://www.w3.org/Graphics/SVG/1.1/DTD/svg11.dtd">
<svg version="1.1" xmlns="http://www.w3.org/2000/svg" xmlns:xlink="http://www.w3.org/1999/xlink" x="0px" y="0px" width="1000px"
	 height="1000px" viewBox="0 0 1000 1000" enable-background="new 0 0 1000 1000" xml:space="preserve">
<g id="Layer_1">
	<path fill="none" d="M729.566,434.649c-5.615-5.608-12.134-10.008-19.561-13.193c-7.434-3.183-15.394-4.775-23.881-4.775
		c-8.493,0-16.532,1.593-24.108,4.775c-7.585,3.185-14.18,7.585-19.788,13.193c-5.615,5.615-10.008,12.132-13.191,19.559
		c-3.185,7.434-4.778,15.394-4.778,23.881c0,8.493,1.592,16.532,4.778,24.108c3.183,7.585,7.576,14.18,13.191,19.788
		c5.608,5.615,12.203,10.008,19.788,13.191c7.576,3.185,15.614,4.778,24.108,4.778h61.409v-61.864
		c0-8.487-1.593-16.447-4.775-23.881C739.572,446.78,735.172,440.264,729.566,434.649z"/>
	<g>
		<polygon fill="#2E3192" points="371.007,423.691 498.085,494.197 786.161,271.208 499.11,564.086 		"/>
		<path fill="#3B84CC" d="M679.332,512.294c0,24.712-4.633,48.099-13.897,70.142c-9.264,22.062-22.065,41.255-38.379,57.573
			c-16.337,16.337-35.527,29.113-57.573,38.38c-22.065,9.267-45.453,13.894-70.145,13.894c-24.712,0-48.099-4.627-70.142-13.894
			c-22.066-9.267-41.255-22.043-57.573-38.38c-16.337-16.317-29.116-35.51-38.38-57.573c-9.267-22.043-13.897-45.43-13.897-70.142
			c0-24.692,4.63-47.853,13.897-69.483c9.264-21.61,22.043-40.577,38.38-56.914c16.317-16.317,35.507-29.113,57.573-38.38
			c22.043-9.267,45.43-13.894,70.142-13.894c24.693,0,48.08,4.627,70.145,13.894c11.592,4.872,22.372,10.747,32.384,17.57
			l87.894-80.591c-22.426-18.513-47.29-33.69-74.619-45.506c-35.733-15.426-74.342-23.161-115.805-23.161
			c-40.593,0-78.972,7.735-115.142,23.161c-36.189,15.451-67.725,36.628-94.627,63.531c-26.925,26.922-48.102,58.232-63.528,93.968
			c-15.448,35.73-23.161,74.342-23.161,115.804c0,40.59,7.712,78.969,23.161,115.139c15.425,36.189,36.602,67.951,63.528,95.293
			c26.903,27.355,58.438,48.758,94.627,64.19c36.17,15.445,74.549,23.161,115.142,23.161c41.462,0,80.071-7.716,115.805-23.161
			c35.737-15.432,67.273-36.835,94.631-64.19c27.339-27.342,48.742-59.104,64.187-95.293
			c15.429-36.169,23.161-74.549,23.161-115.139c0-41.462-7.732-80.074-23.161-115.804c-3.97-9.185-8.34-18.073-13.097-26.674
			l-91.309,83.722C676.041,472.055,679.332,491.631,679.332,512.294z"/>
		<linearGradient id="SVGID_1_" gradientUnits="userSpaceOnUse" x1="500" y1="791.6079" x2="500" y2="206.804">
			<stop  offset="0.1485" style="stop-color:#244185;stop-opacity:0.9"/>
			<stop  offset="1" style="stop-color:#2484C6;stop-opacity:0"/>
		</linearGradient>
		<path fill="url(#SVGID_1_)" d="M679.332,512.294c0,24.712-4.633,48.099-13.897,70.142c-9.264,22.062-22.065,41.255-38.379,57.573
			c-16.337,16.337-35.527,29.113-57.573,38.38c-22.065,9.267-45.453,13.894-70.145,13.894c-24.712,0-48.099-4.627-70.142-13.894
			c-22.066-9.267-41.255-22.043-57.573-38.38c-16.337-16.317-29.116-35.51-38.38-57.573c-9.267-22.043-13.897-45.43-13.897-70.142
			c0-24.692,4.63-47.853,13.897-69.483c9.264-21.61,22.043-40.577,38.38-56.914c16.317-16.317,35.507-29.113,57.573-38.38
			c22.043-9.267,45.43-13.894,70.142-13.894c24.693,0,48.08,4.627,70.145,13.894c11.592,4.872,22.372,10.747,32.384,17.57
			l87.894-80.591c-22.426-18.513-47.29-33.69-74.619-45.506c-35.733-15.426-74.342-23.161-115.805-23.161
			c-40.593,0-78.972,7.735-115.142,23.161c-36.189,15.451-67.725,36.628-94.627,63.531c-26.925,26.922-48.102,58.232-63.528,93.968
			c-15.448,35.73-23.161,74.342-23.161,115.804c0,40.59,7.712,78.969,23.161,115.139c15.425,36.189,36.602,67.951,63.528,95.293
			c26.903,27.355,58.438,48.758,94.627,64.19c36.17,15.445,74.549,23.161,115.142,23.161c41.462,0,80.071-7.716,115.805-23.161
			c35.737-15.432,67.273-36.835,94.631-64.19c27.339-27.342,48.742-59.104,64.187-95.293
			c15.429-36.169,23.161-74.549,23.161-115.139c0-41.462-7.732-80.074-23.161-115.804c-3.97-9.185-8.34-18.073-13.097-26.674
			l-91.309,83.722C676.041,472.055,679.332,491.631,679.332,512.294z"/>
	</g>
</g>
<g id="Isolation_Mode">
</g>
</svg>
