<?xml version="1.0" encoding="utf-8"?>
<svg viewBox="0 0 720 255" xmlns="http://www.w3.org/2000/svg">
  <g id="Layer_1" transform="matrix(1, 0, 0, 1, -208.591385, -375.36203)">
    <polygon fill="#3C86C9" points="266.749,448.547 310.426,472.78 409.438,396.138 310.778,496.801 &#9;"/>
    <g>
      <path fill="#FFFFFF" d="M372.721,479c0,8.493-1.592,16.532-4.776,24.108c-3.184,7.583-7.584,14.18-13.191,19.788 c-5.615,5.615-12.211,10.006-19.788,13.191c-7.584,3.185-15.622,4.775-24.109,4.775c-8.493,0-16.532-1.59-24.108-4.775 c-7.584-3.185-14.179-7.576-19.788-13.191c-5.615-5.608-10.007-12.205-13.191-19.788c-3.185-7.576-4.776-15.614-4.776-24.108 c0-8.487,1.591-16.447,4.776-23.881c3.184-7.427,7.576-13.946,13.191-19.561c5.608-5.608,12.204-10.006,19.788-13.191 c7.576-3.185,15.614-4.775,24.108-4.775c8.487,0,16.525,1.59,24.109,4.775c3.984,1.675,7.689,3.694,11.131,6.039l30.209-27.699 c-7.708-6.363-16.254-11.579-25.647-15.641c-12.282-5.302-25.551-7.96-39.802-7.96c-13.952,0-27.143,2.659-39.574,7.96 c-12.438,5.311-23.277,12.589-32.523,21.836c-9.254,9.253-16.533,20.014-21.835,32.297c-5.31,12.28-7.96,25.552-7.96,39.802 c0,13.951,2.651,27.142,7.96,39.573c5.302,12.438,12.58,23.355,21.835,32.752c9.246,9.402,20.085,16.758,32.523,22.062 c12.432,5.308,25.623,7.96,39.574,7.96c14.251,0,27.521-2.652,39.802-7.96c12.283-5.304,23.122-12.66,32.525-22.062 c9.396-9.397,16.753-20.314,22.061-32.752c5.303-12.431,7.96-25.623,7.96-39.573c0-14.251-2.658-27.522-7.96-39.802 c-1.364-3.157-2.867-6.212-4.501-9.168l-31.383,28.775C371.59,465.17,372.721,471.898,372.721,479z"/>
      <path fill="#FFFFFF" d="M500.992,384.157c-12.438,5.308-23.356,12.587-32.751,21.833c-9.404,9.255-16.76,20.014-22.062,32.297 c-5.31,12.283-7.96,25.552-7.96,39.802v102.348h40.939V478.089c0-8.487,1.591-16.447,4.776-23.881 c3.185-7.427,7.578-13.944,13.193-19.559c5.606-5.608,12.123-10.008,19.559-13.193c7.427-3.183,15.388-4.775,23.881-4.775h20.47 v-40.484h-20.47C526.615,376.196,513.422,378.855,500.992,384.157z"/>
      <path fill="#FFFFFF" d="M780.056,438.287c-5.308-12.283-12.587-23.042-21.833-32.297c-9.253-9.246-20.014-16.525-32.297-21.833 c-12.28-5.302-25.552-7.96-39.802-7.96c-13.951,0-27.144,2.659-39.573,7.96c-12.438,5.308-23.357,12.587-32.752,21.833 c-9.404,9.255-16.76,20.014-22.062,32.297c-5.308,12.283-7.96,25.552-7.96,39.802c0,13.953,2.652,27.144,7.96,39.576 c5.302,12.438,12.658,23.355,22.062,32.75c9.395,9.404,20.314,16.76,32.752,22.062c12.429,5.308,25.623,7.96,39.573,7.96h101.893 V478.089C788.016,463.838,785.36,450.57,780.056,438.287z M747.532,539.953h-61.409c-8.493,0-16.532-1.593-24.108-4.778 c-7.585-3.183-14.18-7.576-19.788-13.191c-5.615-5.608-10.008-12.203-13.191-19.788c-3.185-7.576-4.778-15.614-4.778-24.108 c0-8.487,1.592-16.447,4.778-23.881c3.183-7.427,7.576-13.944,13.191-19.559c5.608-5.608,12.203-10.008,19.788-13.193 c7.576-3.183,15.614-4.775,24.108-4.775c8.487,0,16.447,1.593,23.881,4.775c7.427,3.185,13.946,7.585,19.561,13.193 c5.606,5.615,10.006,12.132,13.191,19.559c3.183,7.434,4.775,15.394,4.775,23.881V539.953z"/>
    </g>
    <g opacity="0.2">
      <linearGradient id="SVGID_1_" gradientUnits="userSpaceOnUse" x1="311.084" y1="575" x2="311.084" y2="374.0025">
        <stop offset="0.1485" style="stop-color:#244185;stop-opacity:0.9"/>
        <stop offset="1" style="stop-color:#2484C6;stop-opacity:0"/>
      </linearGradient>
      <path fill="url(#SVGID_1_)" d="M372.721,479c0,8.493-1.592,16.532-4.776,24.108c-3.184,7.583-7.584,14.18-13.191,19.788 c-5.615,5.615-12.211,10.006-19.788,13.191c-7.584,3.185-15.622,4.775-24.109,4.775c-8.493,0-16.532-1.59-24.108-4.775 c-7.584-3.185-14.179-7.576-19.788-13.191c-5.615-5.608-10.007-12.205-13.191-19.788c-3.185-7.576-4.776-15.614-4.776-24.108 c0-8.487,1.591-16.447,4.776-23.881c3.184-7.427,7.576-13.946,13.191-19.561c5.608-5.608,12.204-10.006,19.788-13.191 c7.576-3.185,15.614-4.775,24.108-4.775c8.487,0,16.525,1.59,24.109,4.775c3.984,1.675,7.689,3.694,11.131,6.039l30.209-27.699 c-7.708-6.363-16.254-11.579-25.647-15.641c-12.282-5.302-25.551-7.96-39.802-7.96c-13.952,0-27.143,2.659-39.574,7.96 c-12.438,5.311-23.277,12.589-32.523,21.836c-9.254,9.253-16.533,20.014-21.835,32.297c-5.31,12.28-7.96,25.552-7.96,39.802 c0,13.951,2.651,27.142,7.96,39.573c5.302,12.438,12.58,23.355,21.835,32.752c9.246,9.402,20.085,16.758,32.523,22.062 c12.432,5.308,25.623,7.96,39.574,7.96c14.251,0,27.521-2.652,39.802-7.96c12.283-5.304,23.122-12.66,32.525-22.062 c9.396-9.397,16.753-20.314,22.061-32.752c5.303-12.431,7.96-25.623,7.96-39.573c0-14.251-2.658-27.522-7.96-39.802 c-1.364-3.157-2.867-6.212-4.501-9.168l-31.383,28.775C371.59,465.17,372.721,471.898,372.721,479z"/>
      <linearGradient id="SVGID_2_" gradientUnits="userSpaceOnUse" x1="499.6281" y1="575" x2="499.6281" y2="374.0025">
        <stop offset="0.1485" style="stop-color:#244185;stop-opacity:0.9"/>
        <stop offset="1" style="stop-color:#2484C6;stop-opacity:0"/>
      </linearGradient>
      <path fill="url(#SVGID_2_)" d="M500.992,384.157c-12.438,5.308-23.356,12.587-32.751,21.833 c-9.404,9.255-16.76,20.014-22.062,32.297c-5.31,12.283-7.96,25.552-7.96,39.802v102.348h40.939V478.089 c0-8.487,1.591-16.447,4.776-23.881c3.185-7.427,7.578-13.944,13.193-19.559c5.606-5.608,12.123-10.008,19.559-13.193 c7.427-3.183,15.388-4.775,23.881-4.775h20.47v-40.484h-20.47C526.615,376.196,513.422,378.855,500.992,384.157z"/>
      <linearGradient id="SVGID_3_" gradientUnits="userSpaceOnUse" x1="685.8955" y1="575" x2="685.8955" y2="374.0025">
        <stop offset="0.1485" style="stop-color:#244185;stop-opacity:0.9"/>
        <stop offset="1" style="stop-color:#2484C6;stop-opacity:0"/>
      </linearGradient>
      <path fill="url(#SVGID_3_)" d="M780.056,438.287c-5.308-12.283-12.587-23.042-21.833-32.297 c-9.253-9.246-20.014-16.525-32.297-21.833c-12.28-5.302-25.552-7.96-39.802-7.96c-13.951,0-27.144,2.659-39.573,7.96 c-12.438,5.308-23.357,12.587-32.752,21.833c-9.404,9.255-16.76,20.014-22.062,32.297c-5.308,12.283-7.96,25.552-7.96,39.802 c0,13.953,2.652,27.144,7.96,39.576c5.302,12.438,12.658,23.355,22.062,32.75c9.395,9.404,20.314,16.76,32.752,22.062 c12.429,5.308,25.623,7.96,39.573,7.96h101.893V478.089C788.016,463.838,785.36,450.57,780.056,438.287z M747.532,539.953h-61.409 c-8.493,0-16.532-1.593-24.108-4.778c-7.585-3.183-14.18-7.576-19.788-13.191c-5.615-5.608-10.008-12.203-13.191-19.788 c-3.185-7.576-4.778-15.614-4.778-24.108c0-8.487,1.592-16.447,4.778-23.881c3.183-7.427,7.576-13.944,13.191-19.559 c5.608-5.608,12.203-10.008,19.788-13.193c7.576-3.183,15.614-4.775,24.108-4.775c8.487,0,16.447,1.593,23.881,4.775 c7.427,3.185,13.946,7.585,19.561,13.193c5.606,5.615,10.006,12.132,13.191,19.559c3.183,7.434,4.775,15.394,4.775,23.881V539.953 z"/>
    </g>
  </g>
  <g id="Isolation_Mode"/>
</svg>