<?xml version="1.0" encoding="utf-8"?>
<svg width="33px" height="33px" viewBox="0 0 33 33" version="1.1" xmlns:xlink="http://www.w3.org/1999/xlink" xmlns="http://www.w3.org/2000/svg">
  <desc>Created with Lunacy</desc>
  <defs>
    <path d="M0 16.5C0 7.3873 7.3873 0 16.5 0C25.6127 0 33 7.3873 33 16.5C33 25.6127 25.6127 33 16.5 33C7.3873 33 0 25.6127 0 16.5Z" id="path_1" />
    <clipPath id="mask_1">
      <use xlink:href="#path_1" />
    </clipPath>
  </defs>
  <g id="svg">
    <path d="M0 16.5C0 7.3873 7.3873 0 16.5 0C25.6127 0 33 7.3873 33 16.5C33 25.6127 25.6127 33 16.5 33C7.3873 33 0 25.6127 0 16.5Z" id="Circle" fill="#040000" stroke="none" />
    <g id="Group">
      <path d="M0 16.5C0 7.3873 7.3873 0 16.5 0C25.6127 0 33 7.3873 33 16.5C33 25.6127 25.6127 33 16.5 33C7.3873 33 0 25.6127 0 16.5Z" id="Circle" fill="none" stroke="none" />
      <g clip-path="url(#mask_1)">
        <path d="M0 0L22.5622 0L22.5622 20.2141L0 20.2141L0 0Z" transform="translate(4.71582 7.02588)" id="Rectangle" fill="#FFFFFF" stroke="none" />
        <path d="M0 25.1145L0 0L25.1145 0L25.1145 25.1145L0 25.1145ZM19.5335 7.24132L20.9288 5.94372L20.9288 5.66472L16.1989 5.66472L12.8782 13.9525L9.097 5.66472L4.18575 5.66472L4.18575 5.94372L5.77634 7.81342C5.85279 7.88392 5.91252 7.97062 5.95115 8.06722C5.98977 8.16372 6.0063 8.26772 5.99958 8.37152L5.99958 15.85C6.0205 15.9854 6.0099 16.1237 5.96882 16.2544C5.92769 16.385 5.85706 16.5045 5.76238 16.6035L3.99042 18.7521L3.99042 19.0312L8.9854 19.0312L8.9854 18.7521L7.2134 16.6035C7.1213 16.5028 7.0523 16.3832 7.0114 16.253C6.9704 16.1229 6.9584 15.9853 6.9763 15.85L6.9763 9.40402L11.4411 19.0312L11.9573 19.0312L15.7384 9.40402L15.7384 17.0081C15.7384 17.2174 15.7384 17.2453 15.6129 17.3848L14.2176 18.78L14.2176 19.0591L20.845 19.0591L20.845 18.78L19.5335 17.4825C19.4746 17.4409 19.4288 17.3834 19.4015 17.3166C19.3743 17.2498 19.3669 17.1766 19.38 17.1058L19.38 7.61802C19.3685 7.54722 19.3768 7.47462 19.4039 7.40812C19.4309 7.34172 19.4758 7.28402 19.5335 7.24132Z" transform="translate(4 4.37158)" id="Shape" fill="#040000" fill-rule="evenodd" stroke="none" />
      </g>
    </g>
  </g>
</svg>