<svg width="33" height="33" viewBox="0 0 33 33" fill="none" xmlns="http://www.w3.org/2000/svg">
<circle cx="16.5" cy="16.5" r="16.5" fill="#FF3F18"/>
<path d="M16.1897 4.0035C23.8883 3.83015 30.197 10.1162 29.9932 17.8819C29.8073 24.9613 23.9968 31.0654 16.3373 30.9881C9.03926 30.9147 3.0367 25.0027 3 17.4907C3.04451 9.98966 9.01271 4.16592 16.1897 4.0035ZM26.0115 17.1175C26.7268 16.5872 27.1609 15.9009 27.0743 14.974C26.9899 14.0658 26.53 13.3904 25.6976 13.0226C24.7972 12.6251 23.9359 12.7375 23.1637 13.3685C23.0754 13.4403 23.0215 13.4435 22.931 13.3841C21.4988 12.44 19.9215 11.9114 18.2192 11.7388C18.0286 11.7193 17.8381 11.699 17.6195 11.6763C17.9888 10.5253 18.3496 9.40401 18.7135 8.27174C18.8009 8.2858 18.8712 8.29361 18.9399 8.30844C19.809 8.49507 20.6766 8.68795 21.5473 8.86521C21.7269 8.90191 21.8151 8.96438 21.8659 9.15335C22.1064 10.0459 22.995 10.6151 23.893 10.4707C25.1276 10.2716 25.7975 8.94173 25.1994 7.87662C24.7215 7.02547 23.2339 6.51635 22.2758 7.63065C22.1813 7.73997 22.1017 7.76574 21.9627 7.73529C20.8343 7.48775 19.7044 7.25036 18.5745 7.00908C18.1052 6.90834 17.8857 7.03719 17.7413 7.49634C17.3337 8.78946 16.9245 10.0826 16.5184 11.3757C16.4833 11.4874 16.4544 11.5694 16.3029 11.5686C15.5408 11.5639 14.7896 11.6717 14.0446 11.8286C12.7086 12.1113 11.4654 12.6157 10.3363 13.3865C10.2332 13.4567 10.17 13.4278 10.0755 13.3849C9.68894 13.2061 9.311 12.9835 8.90417 12.8758C7.49548 12.5025 5.82285 13.6473 6.11099 15.5284C6.22422 16.2679 6.66385 16.8028 7.2698 17.2088C7.36898 17.2752 7.39162 17.3353 7.37366 17.4446C7.20343 18.4621 7.30963 19.4491 7.72037 20.3987C8.30446 21.7496 9.30866 22.7249 10.5299 23.4948C11.923 24.3741 13.4684 24.8192 15.0887 25.023C16.5059 25.201 17.9154 25.1339 19.3077 24.8192C21.3114 24.3671 23.0957 23.5073 24.4693 21.9323C25.5586 20.6829 26.0412 19.2305 25.8171 17.5735C25.7874 17.3517 25.8405 17.2447 26.0115 17.1175Z" fill="#FF3F18"/>
<path d="M27.076 14.974C27.1627 15.9001 26.7286 16.5873 26.0133 17.1175C25.8415 17.2448 25.7884 17.3518 25.8188 17.5728C26.043 19.2298 25.5604 20.6822 24.4711 21.9316C23.0975 23.5066 21.3132 24.3663 19.3095 24.8185C17.9172 25.1324 16.5077 25.1995 15.0905 25.0223C13.4701 24.8185 11.9248 24.3734 10.5317 23.4941C9.31123 22.7242 8.30625 21.7481 7.72215 20.398C7.31142 19.4484 7.206 18.4614 7.37545 17.4439C7.39341 17.3346 7.37154 17.2745 7.27159 17.2081C6.66564 16.802 6.226 16.2671 6.11278 15.5277C5.82464 13.6465 7.49726 12.5018 8.90596 12.875C9.31357 12.9828 9.69073 13.2053 10.0773 13.3842C10.1717 13.4279 10.235 13.456 10.3381 13.3857C11.468 12.615 12.7104 12.1106 14.0464 11.8279C14.7914 11.6702 15.5426 11.5624 16.3047 11.5679C16.4554 11.5686 16.4851 11.4874 16.5202 11.375C16.9263 10.0811 17.3355 8.78874 17.7431 7.49562C17.8875 7.03646 18.107 6.90762 18.5763 7.00835C19.7062 7.24964 20.8361 7.48703 21.9645 7.73456C22.1042 7.76502 22.1839 7.73925 22.2776 7.62993C23.2357 6.51562 24.7225 7.02475 25.2012 7.8759C25.7993 8.94101 25.1293 10.2708 23.8948 10.47C22.9968 10.6144 22.1074 10.0452 21.8684 9.15184C21.8177 8.96287 21.7286 8.9004 21.5498 8.8637C20.6784 8.68644 19.8108 8.49357 18.9425 8.30694C18.8738 8.2921 18.8035 8.2843 18.716 8.27024C18.3522 9.4025 17.9922 10.5238 17.622 11.6748C17.8407 11.6975 18.0312 11.7178 18.2218 11.7373C19.9233 11.9099 21.5014 12.4385 22.9335 13.3826C23.0241 13.442 23.078 13.4388 23.1662 13.367C23.9385 12.736 24.7998 12.6244 25.7002 13.0211C26.5318 13.3904 26.9909 14.0659 27.076 14.974ZM19.8241 18.6043C20.5792 18.6035 21.2508 17.9343 21.2476 17.1862C21.2445 16.3897 20.5987 15.7385 19.8163 15.7408C19.0565 15.7432 18.3943 16.3929 18.3951 17.1339C18.3959 17.9445 19.0385 18.6051 19.8241 18.6043ZM20.1614 21.317C20.3254 21.1273 20.2833 20.9016 20.1325 20.7525C19.9233 20.5448 19.6531 20.487 19.443 20.6072C19.3587 20.6556 19.2814 20.7158 19.1986 20.7665C17.7517 21.6458 16.2399 21.7824 14.6735 21.1312C14.3525 20.9977 14.0574 20.7993 13.7552 20.6236C13.5303 20.4924 13.2476 20.5385 13.0321 20.7564C12.89 20.8993 12.872 21.1452 13.0141 21.3467C13.0945 21.4599 13.2031 21.5622 13.3171 21.6419C14.2963 22.329 15.3973 22.6156 16.6709 22.6305C16.8092 22.6203 17.0356 22.6078 17.2621 22.5867C18.0539 22.5141 18.809 22.3056 19.4922 21.8949C19.7413 21.7434 19.9693 21.5372 20.1614 21.317ZM13.3952 18.6043C14.105 18.6027 14.7851 17.9062 14.782 17.1831C14.7789 16.3991 14.1206 15.7408 13.3413 15.7416C12.5721 15.7416 11.917 16.4022 11.9186 17.1761C11.9209 17.9585 12.5901 18.6059 13.3952 18.6043Z" fill="white"/>
<path d="M21.2473 17.1862C21.2504 17.9344 20.5788 18.6036 19.8236 18.6044C19.038 18.6052 18.3953 17.9445 18.3945 17.1339C18.3938 16.392 19.056 15.7431 19.8158 15.7407C20.5983 15.7376 21.2434 16.3889 21.2473 17.1862Z" fill="#FF3F18"/>
<path d="M20.1318 20.7524C20.2826 20.9016 20.3247 21.1273 20.1607 21.317C19.9686 21.538 19.7406 21.7442 19.4907 21.8941C18.8074 22.3049 18.0522 22.5134 17.2604 22.586C17.0339 22.6071 16.8082 22.6196 16.6692 22.6298C15.3955 22.6157 14.2944 22.3283 13.3151 21.6411C13.2003 21.5607 13.0925 21.4592 13.0121 21.3459C12.87 21.1445 12.8879 20.8977 13.0301 20.7555C13.2464 20.5377 13.5283 20.4924 13.7532 20.6228C14.0554 20.7993 14.3506 20.9969 14.6716 21.1304C16.2381 21.7825 17.75 21.645 19.1971 20.7657C19.2799 20.7157 19.3579 20.6556 19.4415 20.6064C19.6524 20.4861 19.9226 20.5447 20.1318 20.7524Z" fill="#FF3F18"/>
<path d="M14.7836 17.1831C14.7867 17.9062 14.1065 18.6028 13.3967 18.6044C12.5907 18.606 11.9223 17.9586 11.9199 17.1753C11.9184 16.4014 12.5736 15.7407 13.3428 15.7407C14.1221 15.7407 14.7805 16.399 14.7836 17.1831Z" fill="#FF3F18"/>
</svg>
